<svg xmlns="http://www.w3.org/2000/svg" xmlns:xlink="http://www.w3.org/1999/xlink" width="64" zoomAndPan="magnify" viewBox="0 0 48 48" height="64" preserveAspectRatio="xMidYMid meet" version="1.0"><defs><clipPath id="9c50f19603"><path d="M 18.21875 2.324219 L 30 2.324219 L 30 8 L 18.21875 8 Z M 18.21875 2.324219 " clip-rule="nonzero"/></clipPath><clipPath id="cf6216e805"><path d="M 24.09375 2.324219 C 20.851562 2.324219 18.21875 3.597656 18.21875 5.167969 C 18.21875 6.734375 20.851562 8.007812 24.09375 8.007812 C 27.339844 8.007812 29.972656 6.734375 29.972656 5.167969 C 29.972656 3.597656 27.339844 2.324219 24.09375 2.324219 " clip-rule="nonzero"/></clipPath><clipPath id="7cd8ffafd8"><path d="M 18.21875 39.011719 L 30 39.011719 L 30 44.886719 L 18.21875 44.886719 Z M 18.21875 39.011719 " clip-rule="nonzero"/></clipPath><clipPath id="981dfd1027"><path d="M 24.09375 39.011719 C 20.851562 39.011719 18.21875 40.285156 18.21875 41.855469 C 18.21875 43.421875 20.851562 44.695312 24.09375 44.695312 C 27.339844 44.695312 29.972656 43.421875 29.972656 41.855469 C 29.972656 40.285156 27.339844 39.011719 24.09375 39.011719 " clip-rule="nonzero"/></clipPath><clipPath id="a48a287604"><path d="M 39.492188 17.375 L 45.367188 17.375 L 45.367188 29.375 L 39.492188 29.375 Z M 39.492188 17.375 " clip-rule="nonzero"/></clipPath><clipPath id="46d30df8d0"><path d="M 39.492188 23.5 C 39.492188 26.746094 40.765625 29.375 42.332031 29.375 C 43.902344 29.375 45.175781 26.746094 45.175781 23.5 C 45.175781 20.253906 43.902344 17.621094 42.332031 17.621094 C 40.765625 17.621094 39.492188 20.253906 39.492188 23.5 " clip-rule="nonzero"/></clipPath><clipPath id="8a8a5acc06"><path d="M 2.828125 17.375 L 8.699219 17.375 L 8.699219 29.375 L 2.828125 29.375 Z M 2.828125 17.375 " clip-rule="nonzero"/></clipPath><clipPath id="f23afd9a5d"><path d="M 2.828125 23.5 C 2.828125 26.746094 4.097656 29.375 5.667969 29.375 C 7.234375 29.375 8.507812 26.746094 8.507812 23.5 C 8.507812 20.253906 7.234375 17.621094 5.667969 17.621094 C 4.097656 17.621094 2.828125 20.253906 2.828125 23.5 " clip-rule="nonzero"/></clipPath><clipPath id="e7bda271a6"><path d="M 32 6 L 42 6 L 42 16 L 32 16 Z M 32 6 " clip-rule="nonzero"/></clipPath><clipPath id="7b304db798"><path d="M 38.785156 17.054688 L 30.296875 8.566406 L 34.453125 4.414062 L 42.9375 12.898438 Z M 38.785156 17.054688 " clip-rule="nonzero"/></clipPath><clipPath id="b5eda1e3bc"><path d="M 34.628906 12.898438 C 36.925781 15.191406 39.683594 16.152344 40.792969 15.042969 C 41.902344 13.933594 40.941406 11.175781 38.648438 8.878906 C 36.351562 6.585938 33.59375 5.625 32.484375 6.734375 C 31.375 7.84375 32.335938 10.601562 34.628906 12.898438 " clip-rule="nonzero"/></clipPath><clipPath id="9b69458f08"><path d="M 6 31 L 16 31 L 16 41 L 6 41 Z M 6 31 " clip-rule="nonzero"/></clipPath><clipPath id="9364e0cb79"><path d="M 13.5 42.304688 L 5.011719 33.816406 L 9.164062 29.664062 L 17.652344 38.152344 Z M 13.5 42.304688 " clip-rule="nonzero"/></clipPath><clipPath id="2b5b6518d3"><path d="M 9.34375 38.148438 C 11.636719 40.445312 14.398438 41.40625 15.507812 40.296875 C 16.617188 39.1875 15.65625 36.425781 13.359375 34.132812 C 11.066406 31.835938 8.304688 30.875 7.195312 31.984375 C 6.085938 33.09375 7.046875 35.855469 9.34375 38.148438 " clip-rule="nonzero"/></clipPath><clipPath id="165583610f"><path d="M 6 6 L 16 6 L 16 16 L 6 16 Z M 6 6 " clip-rule="nonzero"/></clipPath><clipPath id="d382ee5806"><path d="M 5.195312 13.007812 L 13.679688 4.519531 L 17.835938 8.675781 L 9.347656 17.160156 Z M 5.195312 13.007812 " clip-rule="nonzero"/></clipPath><clipPath id="0df755d06a"><path d="M 9.351562 8.851562 C 7.054688 11.148438 6.09375 13.90625 7.203125 15.015625 C 8.3125 16.125 11.074219 15.164062 13.367188 12.871094 C 15.664062 10.574219 16.625 7.816406 15.515625 6.707031 C 14.40625 5.597656 11.644531 6.558594 9.351562 8.851562 " clip-rule="nonzero"/></clipPath><clipPath id="4ca1f04ec9"><path d="M 32 31 L 42 31 L 42 41 L 32 41 Z M 32 31 " clip-rule="nonzero"/></clipPath><clipPath id="3b24a851e4"><path d="M 30.480469 38.296875 L 38.96875 29.808594 L 43.121094 33.960938 L 34.636719 42.449219 Z M 30.480469 38.296875 " clip-rule="nonzero"/></clipPath><clipPath id="b2a1e7f0f7"><path d="M 34.636719 34.140625 C 32.34375 36.433594 31.382812 39.195312 32.492188 40.304688 C 33.601562 41.414062 36.359375 40.453125 38.65625 38.15625 C 40.949219 35.863281 41.910156 33.101562 40.800781 31.992188 C 39.691406 30.882812 36.933594 31.84375 34.636719 34.140625 " clip-rule="nonzero"/></clipPath><clipPath id="cad3e518ba"><path d="M 14.785156 14.105469 L 32 14.105469 L 32 33.207031 L 14.785156 33.207031 Z M 14.785156 14.105469 " clip-rule="nonzero"/></clipPath><clipPath id="d454b16610"><path d="M 25 15 L 33.152344 15 L 33.152344 23 L 25 23 Z M 25 15 " clip-rule="nonzero"/></clipPath><clipPath id="ba6efecd97"><path d="M 3.792969 21.582031 L 6.734375 21.582031 L 6.734375 25.257812 L 3.792969 25.257812 Z M 3.792969 21.582031 " clip-rule="nonzero"/></clipPath><clipPath id="6aa050c125"><path d="M 22.566406 39.925781 L 25.503906 39.925781 L 25.503906 43.597656 L 22.566406 43.597656 Z M 22.566406 39.925781 " clip-rule="nonzero"/></clipPath><clipPath id="86214bf7ab"><path d="M 22.699219 3.238281 L 25.636719 3.238281 L 25.636719 6.914062 L 22.699219 6.914062 Z M 22.699219 3.238281 " clip-rule="nonzero"/></clipPath><clipPath id="b63af82bc8"><path d="M 40.933594 21.582031 L 43.875 21.582031 L 43.875 25.257812 L 40.933594 25.257812 Z M 40.933594 21.582031 " clip-rule="nonzero"/></clipPath><clipPath id="5744cc713f"><path d="M 35.246094 9.839844 L 38.917969 9.839844 L 38.917969 12.042969 L 35.246094 12.042969 Z M 35.246094 9.839844 " clip-rule="nonzero"/></clipPath><clipPath id="8125addf6f"><path d="M 9.472656 9.839844 L 13.144531 9.839844 L 13.144531 12.042969 L 9.472656 12.042969 Z M 9.472656 9.839844 " clip-rule="nonzero"/></clipPath><clipPath id="d9927b6ef1"><path d="M 35.246094 35.125 L 38.917969 35.125 L 38.917969 37.328125 L 35.246094 37.328125 Z M 35.246094 35.125 " clip-rule="nonzero"/></clipPath><clipPath id="516186d3fb"><path d="M 9.472656 35.125 L 13.144531 35.125 L 13.144531 37.328125 L 9.472656 37.328125 Z M 9.472656 35.125 " clip-rule="nonzero"/></clipPath></defs><g clip-path="url(#9c50f19603)"><g clip-path="url(#cf6216e805)"><path fill="#cb6ce6" d="M 18.21875 2.324219 L 29.964844 2.324219 L 29.964844 7.945312 L 18.21875 7.945312 Z M 18.21875 2.324219 " fill-opacity="1" fill-rule="nonzero"/></g></g><g clip-path="url(#7cd8ffafd8)"><g clip-path="url(#981dfd1027)"><path fill="#cb6ce6" d="M 18.21875 39.011719 L 29.964844 39.011719 L 29.964844 44.632812 L 18.21875 44.632812 Z M 18.21875 39.011719 " fill-opacity="1" fill-rule="nonzero"/></g></g><g clip-path="url(#a48a287604)"><g clip-path="url(#46d30df8d0)"><path fill="#cb6ce6" d="M 39.492188 29.375 L 39.492188 17.628906 L 45.109375 17.628906 L 45.109375 29.375 Z M 39.492188 29.375 " fill-opacity="1" fill-rule="nonzero"/></g></g><g clip-path="url(#8a8a5acc06)"><g clip-path="url(#f23afd9a5d)"><path fill="#cb6ce6" d="M 2.828125 29.375 L 2.828125 17.628906 L 8.445312 17.628906 L 8.445312 29.375 Z M 2.828125 29.375 " fill-opacity="1" fill-rule="nonzero"/></g></g><g clip-path="url(#e7bda271a6)"><g clip-path="url(#7b304db798)"><g clip-path="url(#b5eda1e3bc)"><path fill="#ff66c4" d="M 38.785156 17.054688 L 30.480469 8.746094 L 34.453125 4.773438 L 42.757812 13.082031 Z M 38.785156 17.054688 " fill-opacity="1" fill-rule="nonzero"/></g></g></g><g clip-path="url(#9b69458f08)"><g clip-path="url(#9364e0cb79)"><g clip-path="url(#2b5b6518d3)"><path fill="#ff66c4" d="M 13.5 42.304688 L 5.191406 34 L 9.164062 30.027344 L 17.472656 38.332031 Z M 13.5 42.304688 " fill-opacity="1" fill-rule="nonzero"/></g></g></g><g clip-path="url(#165583610f)"><g clip-path="url(#d382ee5806)"><g clip-path="url(#0df755d06a)"><path fill="#ff66c4" d="M 5.195312 13.007812 L 13.5 4.703125 L 17.472656 8.675781 L 9.167969 16.980469 Z M 5.195312 13.007812 " fill-opacity="1" fill-rule="nonzero"/></g></g></g><g clip-path="url(#4ca1f04ec9)"><g clip-path="url(#3b24a851e4)"><g clip-path="url(#b2a1e7f0f7)"><path fill="#ff66c4" d="M 30.480469 38.296875 L 38.789062 29.988281 L 42.761719 33.960938 L 34.453125 42.269531 Z M 30.480469 38.296875 " fill-opacity="1" fill-rule="nonzero"/></g></g></g><g clip-path="url(#cad3e518ba)"><path fill="#ff66c4" d="M 26.136719 15.660156 L 25.472656 16.773438 C 24.851562 16.410156 24.234375 16.035156 23.605469 15.695312 C 23.480469 15.628906 23.242188 15.621094 23.136719 15.699219 C 21.105469 17.214844 18.851562 18.007812 16.320312 17.902344 C 16.277344 17.902344 16.238281 17.910156 16.179688 17.917969 C 16.160156 17.964844 16.125 18.011719 16.125 18.0625 C 16.078125 21.058594 16.382812 23.988281 17.730469 26.710938 C 18.875 29.019531 20.632812 30.65625 22.976562 31.644531 C 23.257812 31.761719 23.496094 31.761719 23.777344 31.636719 C 26.945312 30.25 28.9375 27.820312 29.933594 24.492188 C 29.972656 24.371094 30.007812 24.246094 30.050781 24.105469 C 30.253906 24.089844 30.464844 24.078125 30.671875 24.054688 C 30.863281 24.035156 31.058594 24.003906 31.300781 23.972656 C 31.03125 25.128906 30.640625 26.191406 30.132812 27.207031 C 28.730469 30.011719 26.554688 31.953125 23.710938 33.121094 C 23.515625 33.203125 23.234375 33.199219 23.035156 33.121094 C 19.25 31.625 16.925781 28.773438 15.75 24.882812 C 14.96875 22.292969 14.785156 19.625 14.824219 16.9375 C 14.824219 16.894531 14.839844 16.855469 14.851562 16.800781 C 15.523438 16.761719 16.195312 16.738281 16.863281 16.691406 C 19.125 16.523438 21.152344 15.703125 22.964844 14.339844 C 23.269531 14.109375 23.464844 14.113281 23.773438 14.300781 C 24.539062 14.773438 25.332031 15.203125 26.136719 15.660156 Z M 26.136719 15.660156 " fill-opacity="1" fill-rule="nonzero"/></g><path fill="#cb6ce6" d="M 24.820312 23.078125 C 24.78125 23.074219 24.738281 23.070312 24.6875 23.070312 C 24.683594 23.019531 24.679688 22.976562 24.679688 22.933594 C 24.667969 22.515625 24.671875 22.09375 24.640625 21.675781 C 24.605469 21.183594 24.128906 20.722656 23.648438 20.695312 C 23.285156 20.679688 22.917969 20.691406 22.554688 20.6875 C 22.027344 20.679688 21.449219 21.1875 21.453125 21.847656 C 21.453125 22.078125 21.445312 22.304688 21.441406 22.535156 C 21.441406 22.710938 21.441406 22.890625 21.441406 23.066406 C 21.332031 23.074219 21.25 23.078125 21.171875 23.09375 C 20.964844 23.128906 20.726562 23.367188 20.726562 23.566406 C 20.71875 24.433594 20.71875 25.300781 20.722656 26.167969 C 20.726562 26.410156 20.984375 26.65625 21.226562 26.65625 C 22.441406 26.660156 23.65625 26.660156 24.871094 26.65625 C 25.144531 26.65625 25.390625 26.417969 25.390625 26.136719 C 25.398438 25.316406 25.398438 24.492188 25.394531 23.667969 C 25.390625 23.324219 25.160156 23.101562 24.820312 23.078125 Z M 23.410156 24.710938 C 23.324219 24.800781 23.300781 24.890625 23.300781 25.007812 C 23.304688 25.238281 23.300781 25.472656 23.292969 25.707031 C 23.285156 25.847656 23.253906 25.875 23.109375 25.875 C 22.832031 25.882812 22.820312 25.867188 22.816406 25.589844 C 22.8125 25.488281 22.8125 25.382812 22.8125 25.28125 C 22.8125 25.214844 22.808594 25.144531 22.8125 25.078125 C 22.816406 24.933594 22.808594 24.8125 22.6875 24.6875 C 22.492188 24.492188 22.535156 24.183594 22.738281 24 C 22.929688 23.828125 23.222656 23.839844 23.40625 24.023438 C 23.585938 24.207031 23.597656 24.519531 23.410156 24.710938 Z M 23.882812 23.066406 L 22.207031 23.066406 C 22.222656 22.632812 22.226562 22.207031 22.253906 21.78125 C 22.269531 21.597656 22.394531 21.488281 22.578125 21.484375 C 22.914062 21.480469 23.246094 21.488281 23.582031 21.5 C 23.726562 21.503906 23.828125 21.601562 23.851562 21.75 C 23.875 21.875 23.878906 22.007812 23.882812 22.136719 C 23.886719 22.441406 23.882812 22.746094 23.882812 23.066406 Z M 23.882812 23.066406 " fill-opacity="1" fill-rule="nonzero"/><g clip-path="url(#d454b16610)"><path fill="#cb6ce6" d="M 29.472656 15.320312 C 27.445312 15.320312 25.796875 17 25.796875 19.070312 C 25.796875 21.136719 27.445312 22.816406 29.472656 22.816406 C 31.503906 22.816406 33.152344 21.136719 33.152344 19.070312 C 33.152344 17 31.503906 15.320312 29.472656 15.320312 Z M 31.585938 18.121094 C 31.558594 18.160156 31.523438 18.195312 31.492188 18.230469 C 30.746094 18.992188 30 19.75 29.253906 20.511719 C 28.988281 20.777344 28.773438 20.78125 28.511719 20.515625 C 28.144531 20.140625 27.773438 19.761719 27.40625 19.386719 C 27.28125 19.261719 27.238281 19.113281 27.289062 18.941406 C 27.335938 18.773438 27.449219 18.671875 27.613281 18.636719 C 27.777344 18.601562 27.910156 18.667969 28.023438 18.78125 C 28.277344 19.042969 28.53125 19.300781 28.785156 19.558594 C 28.816406 19.589844 28.847656 19.617188 28.898438 19.667969 C 28.929688 19.628906 28.949219 19.585938 28.980469 19.554688 C 29.621094 18.902344 30.261719 18.246094 30.90625 17.59375 C 30.996094 17.5 31.09375 17.429688 31.226562 17.425781 C 31.40625 17.417969 31.542969 17.492188 31.628906 17.65625 C 31.710938 17.816406 31.695312 17.976562 31.585938 18.121094 Z M 31.585938 18.121094 " fill-opacity="1" fill-rule="nonzero"/></g><g clip-path="url(#ba6efecd97)"><path fill="#1e1e1d" d="M 5.261719 22.003906 C 5.613281 22.003906 5.898438 22.261719 5.898438 22.578125 L 5.898438 23.152344 L 4.628906 23.152344 L 4.628906 22.578125 C 4.628906 22.261719 4.914062 22.003906 5.261719 22.003906 Z M 6.355469 23.15625 L 6.355469 22.574219 C 6.355469 22.027344 5.867188 21.582031 5.261719 21.582031 C 4.660156 21.582031 4.167969 22.027344 4.167969 22.574219 L 4.167969 23.15625 C 3.957031 23.183594 3.792969 23.347656 3.792969 23.546875 L 3.792969 24.863281 C 3.792969 25.078125 3.988281 25.253906 4.230469 25.253906 L 6.296875 25.253906 C 6.539062 25.253906 6.734375 25.078125 6.734375 24.863281 L 6.734375 23.546875 C 6.734375 23.347656 6.570312 23.183594 6.355469 23.15625 " fill-opacity="1" fill-rule="nonzero"/></g><g clip-path="url(#6aa050c125)"><path fill="#1e1e1d" d="M 24.035156 40.347656 C 24.382812 40.347656 24.667969 40.605469 24.667969 40.921875 L 24.667969 41.496094 L 23.402344 41.496094 L 23.402344 40.921875 C 23.402344 40.605469 23.683594 40.347656 24.035156 40.347656 Z M 25.128906 41.5 L 25.128906 40.917969 C 25.128906 40.371094 24.636719 39.925781 24.035156 39.925781 C 23.429688 39.925781 22.941406 40.371094 22.941406 40.917969 L 22.941406 41.5 C 22.730469 41.527344 22.566406 41.691406 22.566406 41.890625 L 22.566406 43.203125 C 22.566406 43.421875 22.761719 43.597656 23 43.597656 L 25.070312 43.597656 C 25.308594 43.597656 25.503906 43.421875 25.503906 43.203125 L 25.503906 41.890625 C 25.503906 41.691406 25.339844 41.527344 25.128906 41.5 " fill-opacity="1" fill-rule="nonzero"/></g><g clip-path="url(#86214bf7ab)"><path fill="#1e1e1d" d="M 24.167969 3.660156 C 24.515625 3.660156 24.800781 3.917969 24.800781 4.234375 L 24.800781 4.808594 L 23.535156 4.808594 L 23.535156 4.234375 C 23.535156 3.917969 23.816406 3.660156 24.167969 3.660156 Z M 25.261719 4.816406 L 25.261719 4.230469 C 25.261719 3.683594 24.769531 3.238281 24.167969 3.238281 C 23.5625 3.238281 23.074219 3.683594 23.074219 4.230469 L 23.074219 4.816406 C 22.863281 4.839844 22.699219 5.003906 22.699219 5.203125 L 22.699219 6.519531 C 22.699219 6.734375 22.894531 6.914062 23.132812 6.914062 L 25.203125 6.914062 C 25.441406 6.914062 25.636719 6.734375 25.636719 6.519531 L 25.636719 5.203125 C 25.636719 5.003906 25.472656 4.839844 25.261719 4.816406 " fill-opacity="1" fill-rule="nonzero"/></g><g clip-path="url(#b63af82bc8)"><path fill="#1e1e1d" d="M 42.40625 22.003906 C 42.753906 22.003906 43.039062 22.261719 43.039062 22.578125 L 43.039062 23.152344 L 41.769531 23.152344 L 41.769531 22.578125 C 41.769531 22.261719 42.054688 22.003906 42.40625 22.003906 Z M 43.5 23.15625 L 43.5 22.574219 C 43.5 22.027344 43.007812 21.582031 42.40625 21.582031 C 41.800781 21.582031 41.3125 22.027344 41.3125 22.574219 L 41.3125 23.15625 C 41.097656 23.183594 40.933594 23.347656 40.933594 23.546875 L 40.933594 24.863281 C 40.933594 25.078125 41.128906 25.253906 41.371094 25.253906 L 43.4375 25.253906 C 43.679688 25.253906 43.875 25.078125 43.875 24.863281 L 43.875 23.546875 C 43.875 23.347656 43.710938 23.183594 43.5 23.15625 " fill-opacity="1" fill-rule="nonzero"/></g><g clip-path="url(#5744cc713f)"><path fill="#000000" d="M 37.191406 10.574219 C 37.054688 10.144531 36.683594 9.839844 36.246094 9.839844 C 35.695312 9.839844 35.246094 10.332031 35.246094 10.941406 C 35.246094 11.546875 35.695312 12.042969 36.246094 12.042969 C 36.683594 12.042969 37.054688 11.734375 37.191406 11.308594 L 37.917969 11.308594 L 37.917969 12.042969 L 38.585938 12.042969 L 38.585938 11.308594 L 38.917969 11.308594 L 38.917969 10.574219 Z M 36.246094 11.308594 C 36.0625 11.308594 35.914062 11.144531 35.914062 10.941406 C 35.914062 10.738281 36.0625 10.574219 36.246094 10.574219 C 36.433594 10.574219 36.582031 10.738281 36.582031 10.941406 C 36.582031 11.144531 36.433594 11.308594 36.246094 11.308594 Z M 36.246094 11.308594 " fill-opacity="1" fill-rule="nonzero"/></g><g clip-path="url(#8125addf6f)"><path fill="#000000" d="M 11.417969 10.574219 C 11.277344 10.144531 10.910156 9.839844 10.472656 9.839844 C 9.917969 9.839844 9.472656 10.332031 9.472656 10.941406 C 9.472656 11.546875 9.917969 12.042969 10.472656 12.042969 C 10.910156 12.042969 11.277344 11.734375 11.417969 11.308594 L 12.140625 11.308594 L 12.140625 12.042969 L 12.808594 12.042969 L 12.808594 11.308594 L 13.144531 11.308594 L 13.144531 10.574219 Z M 10.472656 11.308594 C 10.289062 11.308594 10.140625 11.144531 10.140625 10.941406 C 10.140625 10.738281 10.289062 10.574219 10.472656 10.574219 C 10.65625 10.574219 10.804688 10.738281 10.804688 10.941406 C 10.804688 11.144531 10.65625 11.308594 10.472656 11.308594 Z M 10.472656 11.308594 " fill-opacity="1" fill-rule="nonzero"/></g><g clip-path="url(#d9927b6ef1)"><path fill="#000000" d="M 37.191406 35.859375 C 37.054688 35.433594 36.683594 35.125 36.246094 35.125 C 35.695312 35.125 35.246094 35.617188 35.246094 36.226562 C 35.246094 36.835938 35.695312 37.328125 36.246094 37.328125 C 36.683594 37.328125 37.054688 37.023438 37.191406 36.59375 L 37.917969 36.59375 L 37.917969 37.328125 L 38.585938 37.328125 L 38.585938 36.59375 L 38.917969 36.59375 L 38.917969 35.859375 Z M 36.246094 36.59375 C 36.0625 36.59375 35.914062 36.429688 35.914062 36.226562 C 35.914062 36.023438 36.0625 35.859375 36.246094 35.859375 C 36.433594 35.859375 36.582031 36.023438 36.582031 36.226562 C 36.582031 36.429688 36.433594 36.59375 36.246094 36.59375 Z M 36.246094 36.59375 " fill-opacity="1" fill-rule="nonzero"/></g><g clip-path="url(#516186d3fb)"><path fill="#000000" d="M 11.417969 35.859375 C 11.277344 35.433594 10.910156 35.125 10.472656 35.125 C 9.917969 35.125 9.472656 35.617188 9.472656 36.226562 C 9.472656 36.835938 9.917969 37.328125 10.472656 37.328125 C 10.910156 37.328125 11.277344 37.023438 11.417969 36.59375 L 12.140625 36.59375 L 12.140625 37.328125 L 12.808594 37.328125 L 12.808594 36.59375 L 13.144531 36.59375 L 13.144531 35.859375 Z M 10.472656 36.59375 C 10.289062 36.59375 10.140625 36.429688 10.140625 36.226562 C 10.140625 36.023438 10.289062 35.859375 10.472656 35.859375 C 10.65625 35.859375 10.804688 36.023438 10.804688 36.226562 C 10.804688 36.429688 10.65625 36.59375 10.472656 36.59375 Z M 10.472656 36.59375 " fill-opacity="1" fill-rule="nonzero"/></g></svg>