<svg xmlns="http://www.w3.org/2000/svg" xmlns:xlink="http://www.w3.org/1999/xlink" width="500" zoomAndPan="magnify" viewBox="0 0 375 374.999991" height="500" preserveAspectRatio="xMidYMid meet" version="1.0"><defs><clipPath id="5a78277759"><path d="M 141.390625 18.550781 L 236 18.550781 L 236 64 L 141.390625 64 Z M 141.390625 18.550781 " clip-rule="nonzero"/></clipPath><clipPath id="a301322daa"><path d="M 188.261719 18.550781 C 162.375 18.550781 141.390625 28.695312 141.390625 41.207031 C 141.390625 53.71875 162.375 63.863281 188.261719 63.863281 C 214.148438 63.863281 235.132812 53.71875 235.132812 41.207031 C 235.132812 28.695312 214.148438 18.550781 188.261719 18.550781 " clip-rule="nonzero"/></clipPath><clipPath id="519968bb41"><path d="M 141.390625 311.136719 L 236 311.136719 L 236 356 L 141.390625 356 Z M 141.390625 311.136719 " clip-rule="nonzero"/></clipPath><clipPath id="e1208c54d3"><path d="M 188.261719 311.136719 C 162.375 311.136719 141.390625 321.28125 141.390625 333.792969 C 141.390625 346.304688 162.375 356.449219 188.261719 356.449219 C 214.148438 356.449219 235.132812 346.304688 235.132812 333.792969 C 235.132812 321.28125 214.148438 311.136719 188.261719 311.136719 " clip-rule="nonzero"/></clipPath><clipPath id="6951b0a38f"><path d="M 311.058594 140 L 356 140 L 356 234.363281 L 311.058594 234.363281 Z M 311.058594 140 " clip-rule="nonzero"/></clipPath><clipPath id="57348a0f3e"><path d="M 311.058594 187.496094 C 311.058594 213.378906 321.203125 234.363281 333.714844 234.363281 C 346.226562 234.363281 356.371094 213.378906 356.371094 187.496094 C 356.371094 161.609375 346.226562 140.625 333.714844 140.625 C 321.203125 140.625 311.058594 161.609375 311.058594 187.496094 " clip-rule="nonzero"/></clipPath><clipPath id="4c2d86b0ba"><path d="M 18.636719 140 L 64 140 L 64 234.363281 L 18.636719 234.363281 Z M 18.636719 140 " clip-rule="nonzero"/></clipPath><clipPath id="9f3ca7520b"><path d="M 18.636719 187.496094 C 18.636719 213.378906 28.777344 234.363281 41.292969 234.363281 C 53.804688 234.363281 63.949219 213.378906 63.949219 187.496094 C 63.949219 161.609375 53.804688 140.625 41.292969 140.625 C 28.777344 140.625 18.636719 161.609375 18.636719 187.496094 " clip-rule="nonzero"/></clipPath><clipPath id="29459790e2"><path d="M 251 50 L 326 50 L 326 124 L 251 124 Z M 251 50 " clip-rule="nonzero"/></clipPath><clipPath id="a5bd75a6a5"><path d="M 305.460938 136.097656 L 237.773438 68.410156 L 270.894531 35.285156 L 338.582031 102.976562 Z M 305.460938 136.097656 " clip-rule="nonzero"/></clipPath><clipPath id="c5e2cbf869"><path d="M 272.316406 102.957031 C 290.621094 121.261719 312.632812 128.925781 321.480469 120.078125 C 330.328125 111.230469 322.664062 89.21875 304.359375 70.914062 C 286.054688 52.613281 264.042969 44.945312 255.195312 53.792969 C 246.347656 62.640625 254.011719 84.652344 272.316406 102.957031 " clip-rule="nonzero"/></clipPath><clipPath id="a505160214"><path d="M 49 251 L 124 251 L 124 326 L 49 326 Z M 49 251 " clip-rule="nonzero"/></clipPath><clipPath id="4d7ba5dbb4"><path d="M 103.785156 337.492188 L 36.097656 269.804688 L 69.222656 236.679688 L 136.910156 304.367188 Z M 103.785156 337.492188 " clip-rule="nonzero"/></clipPath><clipPath id="77f57720b0"><path d="M 70.644531 304.347656 C 88.949219 322.652344 110.957031 330.320312 119.804688 321.472656 C 128.65625 312.621094 120.988281 290.613281 102.683594 272.308594 C 84.382812 254.003906 62.371094 246.339844 53.523438 255.1875 C 44.675781 264.035156 52.339844 286.046875 70.644531 304.347656 " clip-rule="nonzero"/></clipPath><clipPath id="b6e4808fcd"><path d="M 49 49 L 124 49 L 124 124 L 49 124 Z M 49 49 " clip-rule="nonzero"/></clipPath><clipPath id="ff7f244b8a"><path d="M 37.503906 103.78125 L 105.191406 36.09375 L 138.316406 69.21875 L 70.625 136.90625 Z M 37.503906 103.78125 " clip-rule="nonzero"/></clipPath><clipPath id="a5abc4e2e5"><path d="M 70.644531 70.640625 C 52.339844 88.945312 44.675781 110.957031 53.523438 119.804688 C 62.371094 128.652344 84.382812 120.984375 102.6875 102.683594 C 120.992188 84.378906 128.65625 62.367188 119.808594 53.519531 C 110.960938 44.671875 88.949219 52.335938 70.644531 70.640625 " clip-rule="nonzero"/></clipPath><clipPath id="badfac5a2c"><path d="M 251 251 L 326 251 L 326 326 L 251 326 Z M 251 251 " clip-rule="nonzero"/></clipPath><clipPath id="07b0238fc4"><path d="M 239.175781 305.457031 L 306.863281 237.769531 L 339.988281 270.890625 L 272.300781 338.582031 Z M 239.175781 305.457031 " clip-rule="nonzero"/></clipPath><clipPath id="934dd6bfb7"><path d="M 272.320312 272.3125 C 254.015625 290.617188 246.347656 312.628906 255.199219 321.476562 C 264.046875 330.324219 286.054688 322.660156 304.359375 304.355469 C 322.664062 286.050781 330.328125 264.039062 321.480469 255.191406 C 312.632812 246.34375 290.621094 254.011719 272.320312 272.3125 " clip-rule="nonzero"/></clipPath><clipPath id="223088a36a"><path d="M 114 112.5 L 247 112.5 L 247 262.5 L 114 262.5 Z M 114 112.5 " clip-rule="nonzero"/></clipPath><clipPath id="739d0fb09d"><path d="M 30.140625 172.125 L 52.640625 172.125 L 52.640625 202.875 L 30.140625 202.875 Z M 30.140625 172.125 " clip-rule="nonzero"/></clipPath><clipPath id="92aba4b306"><path d="M 176.054688 318.417969 L 198.554688 318.417969 L 198.554688 349.167969 L 176.054688 349.167969 Z M 176.054688 318.417969 " clip-rule="nonzero"/></clipPath><clipPath id="5194b62aa4"><path d="M 177.117188 25.832031 L 199.617188 25.832031 L 199.617188 56.582031 L 177.117188 56.582031 Z M 177.117188 25.832031 " clip-rule="nonzero"/></clipPath><clipPath id="402bcfdbba"><path d="M 322.566406 172.125 L 345.066406 172.125 L 345.066406 202.875 L 322.566406 202.875 Z M 322.566406 172.125 " clip-rule="nonzero"/></clipPath><clipPath id="2d881b0f38"><path d="M 277.191406 78.460938 L 307.191406 78.460938 L 307.191406 94.960938 L 277.191406 94.960938 Z M 277.191406 78.460938 " clip-rule="nonzero"/></clipPath><clipPath id="fb1e530299"><path d="M 71.625 78.460938 L 101.625 78.460938 L 101.625 94.960938 L 71.625 94.960938 Z M 71.625 78.460938 " clip-rule="nonzero"/></clipPath><clipPath id="166caea79f"><path d="M 277.191406 280.136719 L 307.191406 280.136719 L 307.191406 296.636719 L 277.191406 296.636719 Z M 277.191406 280.136719 " clip-rule="nonzero"/></clipPath><clipPath id="c4613b6849"><path d="M 71.625 280.136719 L 101.625 280.136719 L 101.625 296.636719 L 71.625 296.636719 Z M 71.625 280.136719 " clip-rule="nonzero"/></clipPath></defs><g clip-path="url(#5a78277759)"><g clip-path="url(#a301322daa)"><path fill="#cb6ce6" d="M 141.390625 18.550781 L 235.082031 18.550781 L 235.082031 63.359375 L 141.390625 63.359375 Z M 141.390625 18.550781 " fill-opacity="1" fill-rule="nonzero"/></g></g><g clip-path="url(#519968bb41)"><g clip-path="url(#e1208c54d3)"><path fill="#cb6ce6" d="M 141.390625 311.136719 L 235.082031 311.136719 L 235.082031 355.945312 L 141.390625 355.945312 Z M 141.390625 311.136719 " fill-opacity="1" fill-rule="nonzero"/></g></g><g clip-path="url(#6951b0a38f)"><g clip-path="url(#57348a0f3e)"><path fill="#cb6ce6" d="M 311.058594 234.363281 L 311.058594 140.675781 L 355.867188 140.675781 L 355.867188 234.363281 Z M 311.058594 234.363281 " fill-opacity="1" fill-rule="nonzero"/></g></g><g clip-path="url(#4c2d86b0ba)"><g clip-path="url(#9f3ca7520b)"><path fill="#cb6ce6" d="M 18.636719 234.363281 L 18.636719 140.675781 L 63.441406 140.675781 L 63.441406 234.363281 Z M 18.636719 234.363281 " fill-opacity="1" fill-rule="nonzero"/></g></g><g clip-path="url(#29459790e2)"><g clip-path="url(#a5bd75a6a5)"><g clip-path="url(#c5e2cbf869)"><path fill="#ff66c4" d="M 305.460938 136.097656 L 239.210938 69.851562 L 270.894531 38.167969 L 337.144531 104.414062 Z M 305.460938 136.097656 " fill-opacity="1" fill-rule="nonzero"/></g></g></g><g clip-path="url(#a505160214)"><g clip-path="url(#4d7ba5dbb4)"><g clip-path="url(#77f57720b0)"><path fill="#ff66c4" d="M 103.785156 337.492188 L 37.539062 271.242188 L 69.222656 239.558594 L 135.46875 305.808594 Z M 103.785156 337.492188 " fill-opacity="1" fill-rule="nonzero"/></g></g></g><g clip-path="url(#b6e4808fcd)"><g clip-path="url(#ff7f244b8a)"><g clip-path="url(#a5abc4e2e5)"><path fill="#ff66c4" d="M 37.503906 103.78125 L 103.75 37.535156 L 135.433594 69.21875 L 69.1875 135.464844 Z M 37.503906 103.78125 " fill-opacity="1" fill-rule="nonzero"/></g></g></g><g clip-path="url(#badfac5a2c)"><g clip-path="url(#07b0238fc4)"><g clip-path="url(#934dd6bfb7)"><path fill="#ff66c4" d="M 239.175781 305.457031 L 305.425781 239.207031 L 337.109375 270.890625 L 270.859375 337.140625 Z M 239.175781 305.457031 " fill-opacity="1" fill-rule="nonzero"/></g></g></g><g clip-path="url(#223088a36a)"><path fill="#ff66c4" d="M 204.84375 124.683594 L 199.53125 133.429688 C 194.5625 130.582031 189.644531 127.644531 184.589844 124.96875 C 183.59375 124.441406 181.6875 124.386719 180.847656 125.003906 C 164.585938 136.902344 146.570312 143.117188 126.296875 142.300781 C 125.964844 142.289062 125.632812 142.367188 125.15625 142.421875 C 125.023438 142.78125 124.746094 143.175781 124.738281 143.574219 C 124.363281 167.09375 126.789062 190.105469 137.582031 211.488281 C 146.730469 229.605469 160.8125 242.453125 179.574219 250.222656 C 181.820312 251.152344 183.738281 251.148438 185.984375 250.179688 C 211.324219 239.28125 227.277344 220.183594 235.257812 194.066406 C 235.554688 193.101562 235.84375 192.136719 236.183594 191.03125 C 237.816406 190.902344 239.488281 190.796875 241.15625 190.621094 C 242.703125 190.460938 244.238281 190.226562 246.179688 189.96875 C 244.023438 199.058594 240.910156 207.394531 236.839844 215.386719 C 225.621094 237.410156 208.214844 252.640625 185.433594 261.84375 C 183.875 262.472656 181.628906 262.445312 180.046875 261.832031 C 149.757812 250.074219 131.140625 227.675781 121.730469 197.117188 C 115.472656 176.792969 114 155.84375 114.328125 134.710938 C 114.335938 134.390625 114.457031 134.074219 114.554688 133.636719 C 119.933594 133.355469 125.289062 133.167969 130.636719 132.78125 C 148.734375 131.46875 164.957031 125.03125 179.476562 114.316406 C 181.902344 112.527344 183.460938 112.53125 185.933594 114.027344 C 192.066406 117.738281 198.417969 121.09375 204.84375 124.683594 Z M 204.84375 124.683594 " fill-opacity="1" fill-rule="nonzero"/></g><path fill="#cb6ce6" d="M 194.335938 182.9375 C 194.003906 182.914062 193.667969 182.902344 193.261719 182.882812 C 193.238281 182.496094 193.210938 182.164062 193.203125 181.828125 C 193.109375 178.535156 193.144531 175.230469 192.894531 171.949219 C 192.597656 168.085938 188.800781 164.441406 184.941406 164.25 C 182.027344 164.105469 179.101562 164.210938 176.183594 164.175781 C 171.957031 164.125 167.355469 168.101562 167.363281 173.28125 C 167.367188 175.085938 167.308594 176.890625 167.292969 178.691406 C 167.28125 180.082031 167.292969 181.464844 167.292969 182.847656 C 166.414062 182.933594 165.761719 182.96875 165.121094 183.070312 C 163.460938 183.339844 161.558594 185.234375 161.550781 186.796875 C 161.503906 193.605469 161.5 200.414062 161.539062 207.222656 C 161.550781 209.121094 163.636719 211.054688 165.546875 211.054688 C 175.28125 211.074219 185.011719 211.070312 194.742188 211.050781 C 196.921875 211.046875 198.871094 209.183594 198.894531 206.984375 C 198.957031 200.519531 198.964844 194.050781 198.917969 187.585938 C 198.898438 184.890625 197.042969 183.125 194.335938 182.9375 Z M 183.039062 195.78125 C 182.359375 196.476562 182.15625 197.175781 182.171875 198.09375 C 182.199219 199.925781 182.175781 201.757812 182.09375 203.59375 C 182.042969 204.71875 181.773438 204.902344 180.636719 204.925781 C 178.421875 204.972656 178.308594 204.871094 178.273438 202.679688 C 178.257812 201.871094 178.269531 201.0625 178.269531 200.253906 L 178.246094 200.253906 C 178.246094 199.726562 178.234375 199.195312 178.25 198.667969 C 178.289062 197.523438 178.210938 196.558594 177.25 195.59375 C 175.707031 194.054688 176.035156 191.636719 177.667969 190.195312 C 179.191406 188.851562 181.53125 188.9375 183.011719 190.390625 C 184.457031 191.8125 184.527344 194.257812 183.039062 195.78125 Z M 186.828125 182.863281 L 173.414062 182.863281 C 173.53125 179.449219 173.570312 176.101562 173.796875 172.769531 C 173.894531 171.320312 174.910156 170.476562 176.390625 170.449219 C 179.058594 170.402344 181.734375 170.460938 184.402344 170.558594 C 185.574219 170.601562 186.390625 171.363281 186.582031 172.511719 C 186.746094 173.515625 186.804688 174.546875 186.820312 175.570312 C 186.851562 177.960938 186.828125 180.351562 186.828125 182.863281 Z M 186.828125 182.863281 " fill-opacity="1" fill-rule="nonzero"/><path fill="#cb6ce6" d="M 231.570312 122.03125 C 215.316406 122.03125 202.140625 135.207031 202.140625 151.460938 C 202.140625 167.714844 215.316406 180.890625 231.570312 180.890625 C 247.824219 180.890625 261 167.714844 261 151.460938 C 261 135.207031 247.824219 122.03125 231.570312 122.03125 Z M 248.484375 144.035156 C 248.253906 144.339844 247.980469 144.613281 247.710938 144.882812 C 241.742188 150.855469 235.769531 156.828125 229.796875 162.800781 C 227.695312 164.898438 225.957031 164.902344 223.875 162.820312 C 220.917969 159.871094 217.964844 156.917969 215.015625 153.964844 C 214.03125 152.980469 213.683594 151.804688 214.070312 150.464844 C 214.445312 149.152344 215.363281 148.359375 216.679688 148.082031 C 217.984375 147.804688 219.046875 148.304688 219.960938 149.21875 C 221.984375 151.25 224.011719 153.277344 226.046875 155.300781 C 226.292969 155.542969 226.546875 155.777344 226.964844 156.171875 C 227.203125 155.847656 227.375 155.535156 227.617188 155.289062 C 232.75 150.144531 237.886719 145.003906 243.023438 139.867188 C 243.746094 139.144531 244.527344 138.585938 245.589844 138.550781 C 247.03125 138.5 248.140625 139.074219 248.804688 140.359375 C 249.464844 141.632812 249.34375 142.882812 248.484375 144.035156 Z M 248.484375 144.035156 " fill-opacity="1" fill-rule="nonzero"/><g clip-path="url(#739d0fb09d)"><path fill="#1e1e1d" d="M 41.390625 175.65625 C 44.070312 175.65625 46.242188 177.808594 46.242188 180.464844 L 46.242188 185.28125 L 36.542969 185.28125 L 36.542969 180.464844 C 36.542969 177.808594 38.710938 175.65625 41.390625 175.65625 Z M 49.765625 185.316406 L 49.765625 180.429688 C 49.765625 175.847656 46.015625 172.128906 41.390625 172.128906 C 36.765625 172.128906 33.015625 175.847656 33.015625 180.429688 L 33.015625 185.316406 C 31.394531 185.535156 30.140625 186.910156 30.140625 188.582031 L 30.140625 199.570312 C 30.140625 201.390625 31.632812 202.867188 33.472656 202.867188 L 49.3125 202.867188 C 51.152344 202.867188 52.640625 201.390625 52.640625 199.570312 L 52.640625 188.582031 C 52.640625 186.910156 51.390625 185.535156 49.765625 185.316406 " fill-opacity="1" fill-rule="nonzero"/></g><g clip-path="url(#92aba4b306)"><path fill="#1e1e1d" d="M 187.304688 321.953125 C 189.984375 321.953125 192.15625 324.105469 192.15625 326.757812 L 192.15625 331.574219 L 182.457031 331.574219 L 182.457031 326.757812 C 182.457031 324.105469 184.625 321.953125 187.304688 321.953125 Z M 195.679688 331.609375 L 195.679688 326.722656 C 195.679688 322.140625 191.929688 318.425781 187.304688 318.425781 C 182.679688 318.425781 178.929688 322.140625 178.929688 326.722656 L 178.929688 331.609375 C 177.308594 331.828125 176.054688 333.203125 176.054688 334.875 L 176.054688 345.863281 C 176.054688 347.683594 177.546875 349.160156 179.386719 349.160156 L 195.226562 349.160156 C 197.066406 349.160156 198.554688 347.683594 198.554688 345.863281 L 198.554688 334.875 C 198.554688 333.203125 197.304688 331.828125 195.679688 331.609375 " fill-opacity="1" fill-rule="nonzero"/></g><g clip-path="url(#5194b62aa4)"><path fill="#1e1e1d" d="M 188.367188 29.363281 C 191.046875 29.363281 193.214844 31.515625 193.214844 34.171875 L 193.214844 38.988281 L 183.515625 38.988281 L 183.515625 34.171875 C 183.515625 31.515625 185.6875 29.363281 188.367188 29.363281 Z M 196.742188 39.019531 L 196.742188 34.136719 C 196.742188 29.554688 192.992188 25.835938 188.367188 25.835938 C 183.742188 25.835938 179.992188 29.554688 179.992188 34.136719 L 179.992188 39.019531 C 178.367188 39.242188 177.117188 40.617188 177.117188 42.285156 L 177.117188 53.273438 C 177.117188 55.097656 178.605469 56.574219 180.445312 56.574219 L 196.285156 56.574219 C 198.125 56.574219 199.617188 55.097656 199.617188 53.273438 L 199.617188 42.285156 C 199.617188 40.617188 198.363281 39.242188 196.742188 39.019531 " fill-opacity="1" fill-rule="nonzero"/></g><g clip-path="url(#402bcfdbba)"><path fill="#1e1e1d" d="M 333.816406 175.65625 C 336.496094 175.65625 338.664062 177.808594 338.664062 180.464844 L 338.664062 185.28125 L 328.964844 185.28125 L 328.964844 180.464844 C 328.964844 177.808594 331.136719 175.65625 333.816406 175.65625 Z M 342.1875 185.316406 L 342.1875 180.429688 C 342.1875 175.847656 338.441406 172.128906 333.816406 172.128906 C 329.191406 172.128906 325.441406 175.847656 325.441406 180.429688 L 325.441406 185.316406 C 323.816406 185.535156 322.566406 186.910156 322.566406 188.582031 L 322.566406 199.570312 C 322.566406 201.390625 324.054688 202.867188 325.894531 202.867188 L 341.734375 202.867188 C 343.574219 202.867188 345.066406 201.390625 345.066406 199.570312 L 345.066406 188.582031 C 345.066406 186.910156 343.8125 185.535156 342.1875 185.316406 " fill-opacity="1" fill-rule="nonzero"/></g><g clip-path="url(#2d881b0f38)"><path fill="#000000" d="M 293.078125 83.960938 C 291.953125 80.757812 288.933594 78.460938 285.375 78.460938 C 280.855469 78.460938 277.199219 82.152344 277.199219 86.710938 C 277.199219 91.269531 280.855469 94.960938 285.375 94.960938 C 288.933594 94.960938 291.953125 92.664062 293.078125 89.460938 L 299.003906 89.460938 L 299.003906 94.960938 L 304.457031 94.960938 L 304.457031 89.460938 L 307.183594 89.460938 L 307.183594 83.960938 Z M 285.375 89.460938 C 283.871094 89.460938 282.648438 88.230469 282.648438 86.710938 C 282.648438 85.191406 283.871094 83.960938 285.375 83.960938 C 286.882812 83.960938 288.101562 85.191406 288.101562 86.710938 C 288.101562 88.230469 286.882812 89.460938 285.375 89.460938 Z M 285.375 89.460938 " fill-opacity="1" fill-rule="nonzero"/></g><g clip-path="url(#fb1e530299)"><path fill="#000000" d="M 87.511719 83.960938 C 86.386719 80.757812 83.367188 78.460938 79.8125 78.460938 C 75.292969 78.460938 71.632812 82.152344 71.632812 86.710938 C 71.632812 91.269531 75.292969 94.960938 79.8125 94.960938 C 83.367188 94.960938 86.386719 92.664062 87.511719 89.460938 L 93.441406 89.460938 L 93.441406 94.960938 L 98.894531 94.960938 L 98.894531 89.460938 L 101.617188 89.460938 L 101.617188 83.960938 Z M 79.8125 89.460938 C 78.304688 89.460938 77.085938 88.230469 77.085938 86.710938 C 77.085938 85.191406 78.304688 83.960938 79.8125 83.960938 C 81.316406 83.960938 82.535156 85.191406 82.535156 86.710938 C 82.535156 88.230469 81.316406 89.460938 79.8125 89.460938 Z M 79.8125 89.460938 " fill-opacity="1" fill-rule="nonzero"/></g><g clip-path="url(#166caea79f)"><path fill="#000000" d="M 293.078125 285.636719 C 291.953125 282.429688 288.933594 280.136719 285.375 280.136719 C 280.855469 280.136719 277.199219 283.828125 277.199219 288.386719 C 277.199219 292.941406 280.855469 296.636719 285.375 296.636719 C 288.933594 296.636719 291.953125 294.339844 293.078125 291.136719 L 299.003906 291.136719 L 299.003906 296.636719 L 304.457031 296.636719 L 304.457031 291.136719 L 307.183594 291.136719 L 307.183594 285.636719 Z M 285.375 291.136719 C 283.871094 291.136719 282.648438 289.902344 282.648438 288.386719 C 282.648438 286.867188 283.871094 285.636719 285.375 285.636719 C 286.882812 285.636719 288.101562 286.867188 288.101562 288.386719 C 288.101562 289.902344 286.882812 291.136719 285.375 291.136719 Z M 285.375 291.136719 " fill-opacity="1" fill-rule="nonzero"/></g><g clip-path="url(#c4613b6849)"><path fill="#000000" d="M 87.511719 285.636719 C 86.386719 282.429688 83.367188 280.136719 79.8125 280.136719 C 75.292969 280.136719 71.632812 283.828125 71.632812 288.386719 C 71.632812 292.941406 75.292969 296.636719 79.8125 296.636719 C 83.367188 296.636719 86.386719 294.339844 87.511719 291.136719 L 93.441406 291.136719 L 93.441406 296.636719 L 98.894531 296.636719 L 98.894531 291.136719 L 101.617188 291.136719 L 101.617188 285.636719 Z M 79.8125 291.136719 C 78.304688 291.136719 77.085938 289.902344 77.085938 288.386719 C 77.085938 286.867188 78.304688 285.636719 79.8125 285.636719 C 81.316406 285.636719 82.535156 286.867188 82.535156 288.386719 C 82.535156 289.902344 81.316406 291.136719 79.8125 291.136719 Z M 79.8125 291.136719 " fill-opacity="1" fill-rule="nonzero"/></g></svg>